<svg width="16.000000" height="16.000000" viewBox="0 0 16 16" fill="none" xmlns="http://www.w3.org/2000/svg" xmlns:xlink="http://www.w3.org/1999/xlink">
	<desc>
			Created with Pixso.
	</desc>
	<defs>
		<clipPath id="clip136_9615">
			<rect width="16.000000" height="16.000000" fill="white" fill-opacity="0"/>
		</clipPath>
	</defs>
	<g clip-path="url(#clip136_9615)">
		<path d="M1.17 15.13L5.35 13.53C5.62 13.43 5.74 13.15 5.64 12.89C5.54 12.63 5.26 12.5 5 12.6L1.86 13.8L3.19 10.32L10.88 2.63L13.02 4.78L6.37 11.43C6.18 11.63 6.18 11.94 6.37 12.14C6.57 12.34 6.88 12.34 7.08 12.14L14.76 4.46C14.89 4.33 15 4.19 15.1 4.03C15.18 3.91 15.25 3.77 15.31 3.63C15.37 3.48 15.41 3.34 15.44 3.19C15.48 3.02 15.5 2.85 15.5 2.68C15.5 2.51 15.48 2.34 15.44 2.17C15.41 2.02 15.37 1.88 15.31 1.73C15.25 1.59 15.18 1.45 15.1 1.32C15 1.17 14.89 1.03 14.76 0.9C14.63 0.77 14.49 0.65 14.33 0.56C14.2 0.47 14.07 0.4 13.93 0.35C13.78 0.29 13.63 0.24 13.48 0.21C13.32 0.18 13.15 0.16 12.98 0.16C12.81 0.16 12.64 0.18 12.47 0.21C12.32 0.24 12.18 0.29 12.03 0.35C11.89 0.4 11.75 0.47 11.62 0.56C11.47 0.65 11.33 0.77 11.2 0.9L2.4 9.69C2.39 9.71 2.32 9.8 2.31 9.82L0.53 14.48C0.52 14.51 0.5 14.63 0.5 14.66C0.5 14.69 0.52 14.81 0.53 14.84C0.55 14.9 0.59 14.96 0.63 15.01C0.67 15.05 0.73 15.09 0.79 15.12C0.85 15.15 0.92 15.16 0.98 15.16C1.04 15.16 1.11 15.15 1.17 15.13ZM13.73 4.07L11.59 1.92L11.91 1.61C11.99 1.52 12.08 1.45 12.18 1.39C12.25 1.34 12.33 1.31 12.41 1.27C12.49 1.24 12.58 1.21 12.66 1.19C12.77 1.17 12.87 1.16 12.98 1.16C13.09 1.16 13.19 1.17 13.29 1.19C13.38 1.21 13.47 1.24 13.55 1.27C13.63 1.31 13.71 1.34 13.78 1.39C13.88 1.45 13.97 1.52 14.05 1.61C14.13 1.69 14.21 1.78 14.27 1.88C14.31 1.95 14.35 2.03 14.38 2.11C14.42 2.19 14.44 2.28 14.46 2.36C14.48 2.47 14.5 2.57 14.5 2.68C14.5 2.79 14.48 2.89 14.46 2.99C14.44 3.08 14.42 3.17 14.38 3.25C14.35 3.33 14.31 3.41 14.27 3.48C14.21 3.58 14.13 3.67 14.05 3.75L13.73 4.07ZM8.33 14.33L14.33 14.33C14.61 14.33 14.83 14.55 14.83 14.83C14.83 15.11 14.61 15.33 14.33 15.33L8.33 15.33C8.05 15.33 7.83 15.11 7.83 14.83C7.83 14.55 8.05 14.33 8.33 14.33Z" fill="#000000" fill-opacity="0.898039" fill-rule="evenodd"/>
	</g>
</svg>
