<?xml version="1.0" standalone="no"?>
<svg xmlns="http://www.w3.org/2000/svg" width="48" height="48"><rect width="48" height="48" opacity="0"></rect><g><path d="M24 2.02Q18 2.02 12.96 4.97Q7.92 7.92 4.97 12.96Q2.02 18 2.02 24Q2.02 30 4.97 35.04Q7.92 40.08 12.96 43.03Q18 45.98 24 45.98Q29.95 45.98 35.02 43.03Q40.08 40.08 43.03 35.02Q45.98 29.95 45.98 24Q45.98 18.05 43.03 12.98Q40.08 7.92 35.02 4.97Q29.95 2.02 24 2.02ZM24 43.01Q18.86 43.01 14.5 40.44Q10.13 37.87 7.56 33.5Q4.99 29.14 4.99 24Q4.99 18.86 7.56 14.5Q10.13 10.13 14.5 7.56Q18.86 4.99 24 4.99Q29.14 4.99 33.5 7.56Q37.87 10.13 40.44 14.5Q43.01 18.86 43.01 24Q43.01 29.14 40.44 33.5Q37.87 37.87 33.5 40.44Q29.14 43.01 24 43.01ZM16.85 18.48Q16.85 17.47 16.15 16.78Q15.46 16.08 14.4 16.08Q13.39 16.08 12.7 16.78Q12 17.47 12 18.48Q12 19.49 12.7 20.21Q13.39 20.93 14.4 20.93Q15.46 20.93 16.15 20.21Q16.85 19.49 16.85 18.48ZM33.46 16.13Q32.45 16.13 31.75 16.85Q31.06 17.57 31.06 18.58Q31.06 19.58 31.75 20.3Q32.45 21.02 33.46 21.02Q34.51 21.02 35.21 20.3Q35.9 19.58 35.9 18.58Q35.9 17.57 35.21 16.85Q34.51 16.13 33.46 16.13ZM34.08 28.66Q33.55 28.42 32.95 28.63Q32.35 28.85 32.11 29.42Q31.06 31.82 28.87 33.19Q26.69 34.56 24 34.56Q21.26 34.56 19.1 33.19Q16.94 31.82 15.84 29.38Q15.6 28.8 15 28.58Q14.4 28.37 13.82 28.61Q13.25 28.85 13.06 29.45Q12.86 30.05 13.1 30.62Q14.59 33.84 17.52 35.71Q20.45 37.58 24 37.58Q27.55 37.58 30.46 35.74Q33.36 33.89 34.85 30.67Q35.09 30.1 34.87 29.5Q34.66 28.9 34.08 28.66Z" fill="rgba(0,0,0,0.9019607843137255)"></path></g></svg>