<?xml version="1.0" standalone="no"?>
<svg xmlns="http://www.w3.org/2000/svg" width="48" height="48"><rect width="48" height="48" opacity="0"></rect><g><path d="M39.26 25.49L25.44 39.31Q25.01 39.74 25.01 40.37Q25.01 40.99 25.44 41.42Q25.92 41.86 26.54 41.86Q27.17 41.86 27.6 41.42L42.82 26.21Q43.25 25.78 43.49 25.2Q43.73 24.62 43.73 24Q43.73 23.38 43.49 22.82Q43.25 22.27 42.82 21.84L27.55 6.53Q27.02 6.1 26.45 6.1Q25.87 6.1 25.44 6.53Q25.01 6.96 25.01 7.58Q25.01 8.21 25.44 8.64L39.12 22.46L5.76 22.46Q5.14 22.46 4.7 22.92Q4.27 23.38 4.27 24Q4.27 24.62 4.7 25.06Q5.14 25.49 5.76 25.49Z" fill="rgba(0,0,0,0.9019607843137255)"></path></g></svg>