<?xml version="1.0" standalone="no"?>
<svg xmlns="http://www.w3.org/2000/svg" width="48" height="48"><rect width="48" height="48" opacity="0"></rect><g><path d="M26.78 24Q25.87 24 25.37 24.48Q24.86 24.96 24.86 25.92L24.86 41.71Q24.86 42.67 25.37 43.15Q25.87 43.63 26.78 43.63L42.58 43.63Q43.54 43.63 44.02 43.15Q44.5 42.67 44.5 41.71L44.5 25.92Q44.5 24.96 44.02 24.48Q43.54 24 42.58 24L26.78 24ZM27.84 14.54Q27.22 14.54 26.78 14.11Q26.35 13.68 26.35 13.06Q26.35 12.43 26.78 12Q27.22 11.57 27.84 11.57L42.29 11.57Q42.91 11.57 43.34 12Q43.78 12.43 43.78 13.06Q43.78 13.68 43.34 14.11Q42.91 14.54 42.29 14.54L27.84 14.54ZM30.86 32.78Q30.24 32.78 29.81 32.35Q29.38 31.92 29.38 31.3Q29.38 30.67 29.81 30.24Q30.24 29.81 30.86 29.81L39.26 29.81Q39.89 29.81 40.32 30.24Q40.75 30.67 40.75 31.3Q40.75 31.92 40.32 32.35Q39.89 32.78 39.26 32.78L30.86 32.78ZM30.86 38.54Q30.24 38.54 29.81 38.11Q29.38 37.68 29.38 37.06Q29.38 36.43 29.81 35.98Q30.24 35.52 30.86 35.52L39.26 35.52Q39.89 35.52 40.32 35.98Q40.75 36.43 40.75 37.06Q40.75 37.68 40.32 38.11Q39.89 38.54 39.26 38.54L30.86 38.54ZM19.39 11.57Q20.02 11.57 20.45 12Q20.88 12.43 20.88 13.06Q20.88 13.68 20.45 14.11Q20.02 14.54 19.39 14.54L13.68 14.54L13.68 20.26Q13.68 20.88 13.25 21.31Q12.82 21.74 12.19 21.74Q11.57 21.74 11.14 21.31Q10.7 20.88 10.7 20.26L10.7 14.54L4.99 14.54Q4.37 14.54 3.94 14.11Q3.5 13.68 3.5 13.06Q3.5 12.43 3.94 12Q4.37 11.57 4.99 11.57L10.7 11.57L10.7 5.86Q10.7 5.23 11.14 4.8Q11.57 4.37 12.19 4.37Q12.82 4.37 13.25 4.8Q13.68 5.23 13.68 5.86L13.68 11.57L19.39 11.57ZM18.91 28.13Q19.34 28.56 19.32 29.18Q19.3 29.81 18.91 30.24L14.26 34.85L18.91 39.41Q19.3 39.84 19.3 40.46Q19.3 41.09 18.91 41.52Q18.38 42.05 17.78 42.02Q17.18 42 16.8 41.52L12.19 36.96L7.54 41.57Q7.1 42 6.53 42Q5.95 42 5.42 41.57Q4.99 41.14 4.99 40.51Q4.99 39.89 5.42 39.46L10.08 34.85L5.47 30.24Q5.04 29.81 5.04 29.18Q5.04 28.56 5.47 28.13Q5.86 27.7 6.5 27.7Q7.15 27.7 7.58 28.13L12.19 32.74L16.8 28.13Q17.23 27.7 17.86 27.7Q18.48 27.7 18.91 28.13Z" fill="rgba(0,0,0,0.9019607843137255)"></path></g></svg>