<?xml version="1.0" standalone="no"?>
<svg xmlns="http://www.w3.org/2000/svg" width="48" height="48"><rect width="48" height="48" opacity="0"></rect><g><path d="M24 10.03Q23.38 10.03 22.92 10.46Q22.46 10.9 22.46 11.52L22.46 23.95Q22.46 24.34 22.56 24.55Q22.66 24.77 22.94 25.06L33.22 35.33Q33.65 35.76 34.27 35.76Q34.9 35.76 35.33 35.33Q35.76 34.9 35.76 34.27Q35.76 33.65 35.33 33.22L25.49 23.38L25.49 11.52Q25.49 10.9 25.06 10.46Q24.62 10.03 24 10.03Z" fill="rgba(0,0,0,0.9019607843137255)"></path><path d="M22.94 2.02Q17.14 2.3 12.34 5.33Q7.54 8.35 4.78 13.3Q2.02 18.24 2.02 24Q2.02 26.02 2.28 27.67Q2.54 29.33 3.17 31.1L3.41 31.73Q3.5 31.97 3.74 32.09Q3.98 32.21 4.25 32.14Q4.51 32.06 4.66 31.82L8.83 25.06Q8.98 24.86 8.93 24.6Q8.88 24.34 8.69 24.17Q8.5 24 8.21 24L4.99 24Q4.99 19.06 7.39 14.78Q9.79 10.51 13.92 7.9Q18.05 5.28 23.04 5.04Q28.18 4.8 32.66 7.15Q37.15 9.5 39.94 13.73Q42.72 17.95 42.96 23.09Q43.2 28.22 40.85 32.71Q38.5 37.2 34.27 39.98Q30.05 42.77 24.91 43.01Q21.22 43.2 17.76 41.98Q14.3 40.75 11.52 38.35Q11.04 37.97 10.42 37.99Q9.79 38.02 9.41 38.5Q9.07 38.83 9.05 39.34Q9.02 39.84 9.26 40.27Q9.36 40.46 9.55 40.61Q12.86 43.49 17.21 44.86Q21.55 46.22 25.06 45.98Q31.01 45.6 35.93 42.38Q40.85 39.17 43.54 34.03Q46.22 28.9 45.94 22.94Q45.65 16.99 42.46 12.07Q39.26 7.15 34.08 4.44Q28.9 1.73 22.94 2.02Z" fill="rgba(0,0,0,0.9019607843137255)"></path></g></svg>