<?xml version="1.0" standalone="no"?>
<svg xmlns="http://www.w3.org/2000/svg" width="48" height="48"><rect width="48" height="48" opacity="0"></rect><g><path d="M24.05 18Q25.68 18 27.05 18.82Q28.42 19.63 29.21 21.02Q30 22.42 30 24.05Q30 25.68 29.21 27.05Q28.42 28.42 27.05 29.21Q25.68 30 24 30Q22.37 30 20.98 29.18Q19.58 28.37 18.79 26.98Q18 25.58 18 23.95Q18 22.32 18.82 20.95Q19.63 19.58 21.02 18.79Q22.42 18 24.05 18ZM24.1 15.02Q21.65 15.02 19.56 16.22Q17.47 17.42 16.25 19.46Q15.02 21.5 15.02 23.95Q15.02 26.4 16.22 28.49Q17.42 30.58 19.49 31.8Q21.55 33.02 24 33.02Q26.45 33.02 28.51 31.82Q30.58 30.62 31.8 28.56Q33.02 26.5 33.02 24.05Q33.02 21.6 31.82 19.54Q30.62 17.47 28.58 16.25Q26.54 15.02 24.1 15.02ZM27.12 45.31Q28.03 45.31 28.8 44.81Q29.57 44.3 29.95 43.49L31.58 39.7L31.97 39.5Q32.83 38.98 33.7 38.45L37.82 38.98Q38.78 39.07 39.6 38.66Q40.42 38.26 40.9 37.44L44.06 31.97Q44.54 31.15 44.47 30.24Q44.4 29.33 43.87 28.56L41.38 25.2L41.38 22.85L43.87 19.49Q44.45 18.72 44.5 17.81Q44.54 16.9 44.06 16.08L40.9 10.56Q40.46 9.79 39.65 9.36Q38.83 8.93 37.87 9.02L33.7 9.55Q32.83 8.93 31.73 8.4L30.05 4.46Q29.66 3.65 28.9 3.12Q28.13 2.59 27.22 2.59L20.88 2.59Q19.97 2.59 19.18 3.12Q18.38 3.65 18 4.46L16.32 8.4L15.84 8.69Q15.46 8.88 15.1 9.07Q14.74 9.26 14.4 9.5L10.18 9.02Q9.26 8.88 8.42 9.29Q7.58 9.7 7.1 10.51L3.94 16.03Q3.46 16.8 3.53 17.74Q3.6 18.67 4.13 19.44L6.67 22.85L6.67 25.06L4.13 28.46Q3.55 29.23 3.5 30.14Q3.46 31.06 3.94 31.87L7.06 37.34Q7.54 38.16 8.35 38.57Q9.17 38.98 10.13 38.88L14.26 38.4Q15.6 39.26 16.27 39.6L17.95 43.44Q18.29 44.3 19.06 44.81Q19.82 45.31 20.78 45.31L27.12 45.31ZM14.16 35.33L9.6 35.81L6.43 30.19L9.17 26.54Q9.6 25.87 9.6 25.2Q9.55 24.62 9.55 23.9Q9.55 23.18 9.6 22.61Q9.6 21.84 9.17 21.22L6.43 17.47L9.7 11.9L14.3 12.48Q14.74 12.53 15.1 12.43Q15.46 12.34 15.74 12.14Q16.61 11.52 17.86 10.94Q18.58 10.56 18.86 9.89L20.78 5.57L27.22 5.62L29.04 9.89Q29.28 10.51 30.05 10.94Q31.1 11.42 32.21 12.19Q32.93 12.67 33.65 12.53L38.26 12.05L41.42 17.66L38.74 21.26Q38.21 21.84 38.3 22.66Q38.35 23.28 38.35 24.02Q38.35 24.77 38.3 25.34Q38.26 26.11 38.74 26.74L41.42 30.38L38.16 35.95L33.7 35.42Q33.31 35.38 32.93 35.45Q32.54 35.52 32.26 35.76Q31.2 36.53 30 37.06Q29.66 37.25 29.38 37.51Q29.09 37.78 28.94 38.11L27.12 42.29L20.69 42.24L18.91 38.06Q18.58 37.34 17.9 37.01Q16.94 36.58 15.7 35.76Q15.17 35.38 14.5 35.38Z" fill="rgba(0,0,0,0.9019607843137255)"></path></g></svg>