<?xml version="1.0" standalone="no"?>
<svg xmlns="http://www.w3.org/2000/svg" width="48" height="48"><rect width="48" height="48" opacity="0"></rect><g><path d="M33.98 4.99L33.98 4.27Q33.98 3.7 33.72 3.24Q33.46 2.78 33 2.52Q32.54 2.26 32.02 2.26Q31.49 2.26 31.01 2.52Q30.53 2.78 30.26 3.24Q30 3.7 30 4.27L30 4.99L18.05 4.99L18.05 4.27Q18.05 3.7 17.78 3.24Q17.52 2.78 17.04 2.52Q16.56 2.26 16.03 2.26Q15.5 2.26 15.02 2.52Q14.54 2.78 14.28 3.24Q14.02 3.7 14.02 4.27L14.02 4.99L9.98 4.99Q8.35 4.99 6.98 5.81Q5.62 6.62 4.8 8.02Q3.98 9.41 3.98 10.99L3.98 38.02Q3.98 39.65 4.8 41.02Q5.62 42.38 6.98 43.2Q8.35 44.02 9.98 44.02L38.02 44.02Q39.65 44.02 41.02 43.2Q42.38 42.38 43.2 41.02Q44.02 39.65 44.02 38.02L44.02 10.99Q44.02 9.36 43.2 7.99Q42.38 6.62 41.02 5.81Q39.65 4.99 38.02 4.99ZM14.02 8.02L14.02 8.4Q14.02 9.26 14.62 9.84Q15.22 10.42 16.03 10.42Q16.85 10.42 17.45 9.84Q18.05 9.26 18.05 8.4L18.05 8.02L30 8.02L30 8.4Q30 9.26 30.58 9.84Q31.15 10.42 31.97 10.42Q32.78 10.42 33.38 9.84Q33.98 9.26 33.98 8.4L33.98 8.02L37.97 8.02Q39.22 8.02 40.1 8.9Q40.99 9.79 40.99 10.99L40.99 15.41L7.01 15.41L7.01 10.99Q7.01 9.74 7.9 8.88Q8.78 8.02 9.98 8.02ZM9.98 41.04Q8.74 41.04 7.87 40.15Q7.01 39.26 7.01 38.02L7.01 18.43L40.99 18.43L40.99 38.02Q40.99 39.26 40.13 40.15Q39.26 41.04 38.02 41.04L9.98 41.04ZM12.96 26.69Q13.78 26.69 14.38 26.09Q14.98 25.49 14.98 24.67Q14.98 23.86 14.38 23.26Q13.78 22.66 12.96 22.66Q12.14 22.66 11.54 23.26Q10.94 23.86 10.94 24.67Q10.94 25.49 11.54 26.09Q12.14 26.69 12.96 26.69ZM20.4 26.69Q21.22 26.69 21.82 26.09Q22.42 25.49 22.42 24.67Q22.42 23.86 21.82 23.26Q21.22 22.66 20.4 22.66Q19.58 22.66 18.98 23.26Q18.38 23.86 18.38 24.67Q18.38 25.49 18.98 26.09Q19.58 26.69 20.4 26.69ZM27.89 26.69Q28.7 26.69 29.3 26.09Q29.9 25.49 29.9 24.67Q29.9 23.86 29.3 23.26Q28.7 22.66 27.89 22.66Q27.07 22.66 26.47 23.26Q25.87 23.86 25.87 24.67Q25.87 25.49 26.47 26.09Q27.07 26.69 27.89 26.69ZM35.33 26.69Q36.14 26.69 36.74 26.09Q37.34 25.49 37.34 24.67Q37.34 23.86 36.74 23.26Q36.14 22.66 35.33 22.66Q34.51 22.66 33.91 23.26Q33.31 23.86 33.31 24.67Q33.31 25.49 33.91 26.09Q34.51 26.69 35.33 26.69ZM12.96 34.7Q13.78 34.7 14.38 34.1Q14.98 33.5 14.98 32.69Q14.98 31.87 14.38 31.27Q13.78 30.67 12.96 30.67Q12.14 30.67 11.54 31.27Q10.94 31.87 10.94 32.69Q10.94 33.5 11.54 34.1Q12.14 34.7 12.96 34.7ZM20.4 34.7Q21.22 34.7 21.82 34.1Q22.42 33.5 22.42 32.69Q22.42 31.87 21.82 31.27Q21.22 30.67 20.4 30.67Q19.58 30.67 18.98 31.27Q18.38 31.87 18.38 32.69Q18.38 33.5 18.98 34.1Q19.58 34.7 20.4 34.7Z" fill="rgba(0,0,0,0.9019607843137255)"></path></g></svg>