<?xml version="1.0" standalone="no"?>
<svg xmlns="http://www.w3.org/2000/svg" width="48" height="48"><rect width="48" height="48" opacity="0"></rect><g><path d="M24 2.02Q18.05 2.02 12.98 4.97Q7.92 7.92 4.97 12.98Q2.02 18.05 2.02 24Q2.02 29.95 4.97 35.02Q7.92 40.08 12.98 43.03Q18.05 45.98 24 45.98Q29.95 45.98 35.02 43.03Q40.08 40.08 43.03 35.02Q45.98 29.95 45.98 24Q45.98 18.05 43.03 12.98Q40.08 7.92 35.02 4.97Q29.95 2.02 24 2.02ZM33.94 22.51Q33.79 18.53 32.69 14.69Q36.05 13.63 38.74 12Q40.51 14.21 41.59 16.87Q42.67 19.54 42.91 22.51L33.94 22.51ZM17.04 22.51Q17.18 18.86 18.19 15.41Q20.74 15.98 23.98 15.98Q27.22 15.98 29.81 15.46Q30.82 18.82 30.96 22.51L17.04 22.51ZM30.96 25.49Q30.77 28.99 29.71 32.54Q24 31.39 18.29 32.54Q17.23 28.99 17.04 25.49L30.96 25.49ZM31.78 11.86Q30.53 8.5 28.61 5.57Q30.86 6.14 32.88 7.22Q34.9 8.3 36.58 9.79Q34.42 10.99 31.78 11.86ZM24.62 5.04Q27.22 8.4 28.85 12.58Q26.54 13.01 24.02 13.01Q21.5 13.01 19.2 12.53Q20.02 10.51 21.07 8.64Q22.13 6.77 23.47 5.04Q23.76 4.99 24.05 4.99Q24.34 4.99 24.62 5.04ZM16.27 11.81Q13.78 11.04 11.42 9.74Q13.1 8.26 15.14 7.2Q17.18 6.14 19.39 5.57Q17.42 8.64 16.27 11.81ZM9.31 11.95Q12.19 13.63 15.31 14.64Q14.21 18.58 14.06 22.46L5.09 22.46Q5.28 19.54 6.38 16.87Q7.49 14.21 9.31 11.95ZM14.06 25.49Q14.21 29.18 15.36 33.31Q12.14 34.32 9.31 36Q7.49 33.74 6.38 31.08Q5.28 28.42 5.09 25.49L14.06 25.49ZM16.37 36.14Q17.57 39.36 19.63 42.48Q17.38 41.9 15.29 40.82Q13.2 39.74 11.42 38.21Q13.73 36.96 16.37 36.14ZM23.71 42.96Q22.56 41.57 21.6 40.01Q20.64 38.45 19.87 36.77L19.3 35.42Q21.89 34.94 24.05 34.94Q26.21 34.94 28.7 35.42Q28.61 35.71 28.03 36.96Q27.26 38.59 26.35 40.1Q25.44 41.62 24.34 42.96Q24.14 42.96 24.02 42.96Q23.9 42.96 23.71 42.96ZM31.68 36.1Q34.27 36.91 36.58 38.21Q34.85 39.74 32.76 40.85Q30.67 41.95 28.42 42.48Q30.43 39.31 31.68 36.1ZM38.74 36Q35.81 34.27 32.64 33.26Q33.79 29.52 33.94 25.49L42.96 25.49Q42.72 28.46 41.64 31.13Q40.56 33.79 38.74 36Z" fill="rgba(0,0,0,0.9019607843137255)"></path></g></svg>