<?xml version="1.0" standalone="no"?>
<svg xmlns="http://www.w3.org/2000/svg" width="48" height="48"><rect width="48" height="48" opacity="0"></rect><g><path d="M24 45.98Q29.95 45.98 35.02 43.03Q40.08 40.08 43.03 35.02Q45.98 29.95 45.98 24Q45.98 18.05 43.03 12.98Q40.08 7.92 35.02 4.97Q29.95 2.02 24 2.02Q18.05 2.02 12.98 4.97Q7.92 7.92 4.97 12.98Q2.02 18.05 2.02 24Q2.02 29.95 4.97 34.99Q7.92 40.03 12.98 43.01Q18.05 45.98 24 45.98ZM24 4.99Q29.14 4.99 33.5 7.56Q37.87 10.13 40.44 14.5Q43.01 18.86 43.01 24Q43.01 29.14 40.44 33.5Q37.87 37.87 33.5 40.44Q29.14 43.01 24 43.01Q18.86 43.01 14.5 40.44Q10.13 37.87 7.56 33.5Q4.99 29.14 4.99 24Q4.99 18.86 7.56 14.5Q10.13 10.13 14.5 7.56Q18.86 4.99 24 4.99Z" fill="rgba(0,0,0,0.9019607843137255)"></path><path d="M24 29.9Q24.62 29.9 25.08 29.47Q25.54 29.04 25.54 28.42L25.54 27.22Q25.54 26.59 25.9 26.09Q26.26 25.58 26.93 25.3Q29.14 24.29 30.24 22.15Q31.34 20.02 30.91 17.62Q30.58 15.5 28.97 13.92Q27.36 12.34 25.25 11.95Q23.66 11.71 22.15 12.1Q20.64 12.48 19.44 13.49Q18.24 14.5 17.59 15.91Q16.94 17.33 16.94 18.86Q16.94 19.49 17.4 19.94Q17.86 20.4 18.48 20.4Q19.1 20.4 19.54 19.94Q19.97 19.49 19.97 18.86Q19.97 18 20.35 17.18Q20.74 16.37 21.41 15.79Q22.08 15.22 22.94 15Q23.81 14.78 24.72 14.93Q25.97 15.17 26.86 16.06Q27.74 16.94 27.94 18.14Q28.18 19.54 27.55 20.74Q26.93 21.94 25.68 22.56Q24.19 23.18 23.35 24.43Q22.51 25.68 22.51 27.22L22.51 28.42Q22.51 29.04 22.94 29.47Q23.38 29.9 24 29.9ZM21.98 33.94Q21.98 34.8 22.58 35.38Q23.18 35.95 24 35.95Q24.82 35.95 25.42 35.38Q26.02 34.8 26.02 33.94Q26.02 33.12 25.42 32.54Q24.82 31.97 24 31.97Q23.18 31.97 22.58 32.54Q21.98 33.12 21.98 33.94Z" fill="rgba(0,0,0,0.9019607843137255)"></path></g></svg>