<?xml version="1.0" standalone="no"?>
<svg xmlns="http://www.w3.org/2000/svg" width="48" height="48"><rect width="48" height="48" opacity="0"></rect><g><path d="M24 44.45Q29.28 44.45 33.89 41.88Q38.5 39.31 41.35 34.87Q44.21 30.43 44.5 25.06Q44.54 24.43 44.11 23.98Q43.68 23.52 43.06 23.47Q42.43 23.42 41.98 23.83Q41.52 24.24 41.47 24.86Q41.28 29.33 38.93 33.1Q36.58 36.86 32.76 39.12Q28.94 41.38 24.48 41.47Q19.73 41.62 15.65 39.36Q11.57 37.1 9.1 33.14Q6.62 29.18 6.48 24.43Q6.38 19.82 8.47 15.86Q10.56 11.9 14.3 9.38Q18.05 6.86 22.66 6.53Q23.28 6.43 23.66 5.98Q24.05 5.52 24 4.9Q23.95 4.27 23.5 3.86Q23.04 3.46 22.42 3.5Q17.04 3.94 12.67 6.86Q8.3 9.79 5.83 14.47Q3.36 19.15 3.5 24.53Q3.65 30 6.46 34.56Q9.26 39.12 13.92 41.78Q18.58 44.45 24 44.45Z" fill="rgba(0,0,0,0.9019607843137255)"></path><path d="M30.77 3.94Q30.14 3.74 29.62 4.03Q29.09 4.32 28.9 4.94Q28.7 5.57 28.99 6.1Q29.28 6.62 29.86 6.82L37.44 9.12Q30.82 11.14 27.38 15.14Q23.95 19.15 22.97 22.49Q21.98 25.82 21.98 27.22L21.98 27.22Q21.98 27.84 22.39 28.3Q22.8 28.75 23.42 28.75Q24.05 28.75 24.5 28.32Q24.96 27.89 24.96 27.31Q24.96 26.11 25.87 23.16Q26.78 20.21 29.98 16.78Q33.17 13.34 39.36 11.76L36.86 19.97Q36.67 20.54 36.96 21.1Q37.25 21.65 37.82 21.84Q38.35 21.98 38.95 21.72Q39.55 21.46 39.74 20.83L43.2 9.36Q43.39 8.74 43.1 8.18Q42.82 7.63 42.24 7.44L30.77 3.94Z" fill="rgba(0,0,0,0.9019607843137255)"></path></g></svg>