<?xml version="1.0" standalone="no"?>
<svg xmlns="http://www.w3.org/2000/svg" width="48" height="48"><rect width="48" height="48" opacity="0"></rect><g><path d="M36 12.91L36 10.99Q36 9.36 35.18 7.99Q34.37 6.62 33 5.81Q31.63 4.99 30 4.99L17.95 4.99Q16.32 4.99 14.95 5.81Q13.58 6.62 12.77 7.99Q11.95 9.36 11.95 10.99L11.95 12.91L9.02 12.91Q7.39 12.91 6.02 13.73Q4.66 14.54 3.84 15.91Q3.02 17.28 3.02 18.91L3.02 36.96Q3.02 38.59 3.84 39.96Q4.66 41.33 6.02 42.14Q7.39 42.96 9.02 42.96L39.02 42.96Q40.66 42.96 42.02 42.17Q43.39 41.38 44.21 40.01Q45.02 38.64 45.02 37.01L45.02 18.91Q45.02 17.28 44.21 15.91Q43.39 14.54 42 13.73Q40.61 12.91 39.02 12.91ZM14.98 10.99Q14.98 9.74 15.84 8.88Q16.7 8.02 17.95 8.02L30 8.02Q31.25 8.02 32.14 8.88Q33.02 9.74 33.02 10.99L33.02 12.91L14.98 12.91L14.98 10.99ZM39.02 15.94Q40.27 15.94 41.14 16.8Q42 17.66 42 18.91L42 24.91L29.9 24.91Q29.52 24.29 28.92 23.93Q28.32 23.57 27.65 23.57L20.3 23.57Q19.63 23.57 19.03 23.93Q18.43 24.29 18.05 24.91L6 24.91L6 18.91Q6 17.66 6.89 16.8Q7.78 15.94 9.02 15.94L39.02 15.94ZM9.02 39.98Q7.78 39.98 6.89 39.1Q6 38.21 6 36.96L6 27.6L18.05 27.6Q18.43 28.22 19.03 28.58Q19.63 28.94 20.3 28.94L27.65 28.94Q28.37 28.94 28.99 28.56Q29.62 28.18 29.95 27.6L42 27.6L42 37.01Q42 38.21 41.14 39.1Q40.27 39.98 39.02 39.98L9.02 39.98Z" fill="rgba(0,0,0,0.9019607843137255)"></path></g></svg>