<svg width="24.000000" height="24.000000" viewBox="0 0 24 24" fill="none" xmlns="http://www.w3.org/2000/svg" xmlns:xlink="http://www.w3.org/1999/xlink">
	<desc>
			Created with Pixso.
	</desc>
	<defs>
		<clipPath id="clip42_3801">
			<rect width="24.000000" height="24.000000" fill="white" fill-opacity="0"/>
		</clipPath>
	</defs>
	<g clip-path="url(#clip42_3801)">
		<g opacity="0.000000">
			<rect width="24.000000" height="24.000000" fill="#000000" fill-opacity="1.000000"/>
		</g>
		<path d="M9.73 2.68C9.73 2.49 9.67 2.33 9.54 2.19C9.4 2.05 9.24 1.98 9.05 1.98C8.84 1.98 8.66 2.07 8.52 2.26L5.39 6.02C5.28 6.15 5.22 6.3 5.22 6.45C5.22 6.64 5.3 6.81 5.43 6.95C5.57 7.1 5.73 7.17 5.92 7.17L8.26 7.17L8.26 21.26C8.26 21.47 8.33 21.65 8.46 21.79C8.61 21.93 8.79 22.01 9 22.01C9.2 22.01 9.38 21.93 9.53 21.79C9.66 21.65 9.73 21.47 9.73 21.26L9.73 5.26L9.73 2.68ZM15.74 16.81L15.74 2.76C15.74 2.55 15.66 2.37 15.53 2.21C15.38 2.06 15.2 1.98 15 1.98C14.79 1.98 14.61 2.06 14.47 2.21C14.33 2.37 14.26 2.55 14.26 2.76L14.26 18.74L14.26 21.29C14.26 21.49 14.32 21.66 14.46 21.8C14.59 21.93 14.75 22.01 14.95 22.01C15.15 22.01 15.33 21.92 15.48 21.74L18.6 17.98C18.71 17.84 18.77 17.7 18.77 17.54C18.77 17.35 18.7 17.18 18.56 17.04C18.42 16.89 18.26 16.81 18.07 16.81L15.74 16.81Z" fill="#191919" fill-opacity="1.000000" fill-rule="nonzero"/>
	</g>
</svg>
